<svg id="Слой_2" data-name="Слой 2" xmlns="http://www.w3.org/2000/svg" viewBox="0 0 280.5 294"><defs><style>.cls-1{fill:#b5c5c5;}.cls-2{fill:#fff;}.cls-3{fill:#ffe092;}</style></defs><title>Moon cat</title><path class="cls-1" d="M272.7,189.41c-.61-1.24-2.05-4.17-5.23-5.28a8.91,8.91,0,0,0-6.51.46,19.66,19.66,0,0,0-5.35,4c-7.32,7.16-12.73,16.14-20.29,23.06a52.9,52.9,0,0,1-29.2,13.48A71.57,71.57,0,0,0,189.41,213c-6.15-3.23-12.77-6.6-21.56-6.2a32,32,0,0,0-6.85,1.06,36.43,36.43,0,0,0-4.32-4.32c-2-1.66-3-2.49-4.33-2.67-2.12-.28-3.89,1-5.48,2.22a14.68,14.68,0,0,0-3.61,3.84,70.82,70.82,0,0,1-20-18.19,70,70,0,0,1-10.51-20.35,72.52,72.52,0,0,1-3.23-20.08,94.59,94.59,0,0,1,7.68-43.66c2.43-5.49,5.39-12.21,11.72-19.41,13.59-15.44,30.81-19.8,36.79-21a72.37,72.37,0,0,1,36,2.43c8.36,2.73,24.4,13.21,34,23a24.07,24.07,0,0,0,11.18,6.74c2.25.57,5.87,1.49,9-.27,5.56-3.1,5.3-12.07,5.25-14.14-.14-4.73-1.76-8.33-3.5-12.14A46.79,46.79,0,0,0,251,59.37a132.72,132.72,0,0,0-56.23-35.32s-19.59-5.92-39.18-5.92A132,132,0,1,0,260.08,230.78c1.62-2.63,11.67-19.09,13.66-31.12C274.39,195.74,274.17,192.41,272.7,189.41Z" transform="translate(-8.59 -3.13)"/><path class="cls-2" d="M155.59,18.13c19.59,0,39.18,5.92,39.18,5.92A132.72,132.72,0,0,1,251,59.37a46.79,46.79,0,0,1,6.6,10.51c1.74,3.81,3.36,7.41,3.5,12.14,0,2.07.31,11-5.25,14.14a8.55,8.55,0,0,1-4.24,1,19.57,19.57,0,0,1-4.79-.75,24.07,24.07,0,0,1-11.18-6.74c-9.56-9.83-25.6-20.31-34-23a74.3,74.3,0,0,0-23-3.66,64.66,64.66,0,0,0-13,1.23c-6,1.22-23.2,5.58-36.79,21-6.33,7.2-9.29,13.92-11.72,19.41a94.59,94.59,0,0,0-7.68,43.66,72.52,72.52,0,0,0,3.23,20.08,70,70,0,0,0,10.51,20.35,70.82,70.82,0,0,0,20,18.19,14.68,14.68,0,0,1,3.61-3.84c1.44-1.06,3-2.26,4.91-2.26a3.64,3.64,0,0,1,.57,0c1.37.18,2.38,1,4.33,2.67a36.43,36.43,0,0,1,4.32,4.32,32,32,0,0,1,6.85-1.06l1.4,0c8.1,0,14.34,3.18,20.16,6.23a71.87,71.87,0,0,1,16.71,12.13,52.9,52.9,0,0,0,29.2-13.48c7.56-6.92,13-15.9,20.29-23.06a19.66,19.66,0,0,1,5.35-4,9.65,9.65,0,0,1,3.93-.88,7.86,7.86,0,0,1,2.58.42c3.18,1.11,4.62,4,5.23,5.28,1.47,3,1.69,6.33,1,10.25-2,12-12,28.49-13.66,31.12A132,132,0,1,1,155.59,18.13m0-15a147,147,0,0,0-103.95,251,147.09,147.09,0,0,0,169.82,27.49A148.34,148.34,0,0,0,272,240c.32-.42.62-.85.9-1.3,4-6.42,13.42-22.84,15.69-36.55,1.2-7.27.43-13.58-2.38-19.3C283,176.36,278.36,172,272.37,170a22.85,22.85,0,0,0-7.48-1.25A24.68,24.68,0,0,0,254.67,171a34,34,0,0,0-9.55,6.9,130.84,130.84,0,0,0-10.69,12.24,95.25,95.25,0,0,1-9.24,10.48A38.19,38.19,0,0,1,210.45,209a86.38,86.38,0,0,0-14.07-9.24c-6-3.16-15.16-7.94-27.13-7.94-.68,0-1.38,0-2.07,0l-1.06.06c-2.63-2.22-6.22-5.13-11.8-5.87a19.58,19.58,0,0,0-2.54-.17,20.17,20.17,0,0,0-9,2.15A55.22,55.22,0,0,1,127,163.83a58.08,58.08,0,0,1-2.54-16.22,79.43,79.43,0,0,1,6.42-36.89c2.2-5,4.47-10.12,9.27-15.57a52.11,52.11,0,0,1,28.52-16.23,50.62,50.62,0,0,1,10-.93A59.09,59.09,0,0,1,197,80.9c5.4,1.77,19.47,10.62,27.86,19.25l0,0A38.82,38.82,0,0,0,243.12,111a33.63,33.63,0,0,0,8.49,1.22,23.43,23.43,0,0,0,11.55-2.92c5-2.82,13.42-10.15,12.93-27.66-.22-7.82-2.89-13.68-4.84-17.95a62.41,62.41,0,0,0-8.71-13.86c-.21-.26-.44-.51-.66-.75A147.71,147.71,0,0,0,199.26,9.73l-.16-.05c-.89-.26-22-6.55-43.51-6.55Z" transform="translate(-8.59 -3.13)"/><path class="cls-3" d="M272.7,189.41c-.61-1.24-2.05-4.17-5.23-5.28a8.91,8.91,0,0,0-6.51.46,19.66,19.66,0,0,0-5.35,4c-7.32,7.16-12.73,16.14-20.29,23.06a52.9,52.9,0,0,1-29.2,13.48A71.57,71.57,0,0,0,189.41,213c-6.15-3.23-12.77-6.6-21.56-6.2a32,32,0,0,0-6.85,1.06,36.43,36.43,0,0,0-4.32-4.32c-2-1.66-3-2.49-4.33-2.67-2.12-.28-3.89,1-5.48,2.22a14.68,14.68,0,0,0-3.61,3.84,70.82,70.82,0,0,1-20-18.19,70,70,0,0,1-10.51-20.35,72.52,72.52,0,0,1-3.23-20.08,94.59,94.59,0,0,1,7.68-43.66c2.43-5.49,5.39-12.21,11.72-19.41,13.59-15.44,30.81-19.8,36.79-21a72.37,72.37,0,0,1,36,2.43c8.36,2.73,24.4,13.21,34,23a24.07,24.07,0,0,0,11.18,6.74c2.25.57,5.87,1.49,9-.27,5.56-3.1,5.3-12.07,5.25-14.14-.14-4.73-1.76-8.33-3.5-12.14A46.79,46.79,0,0,0,251,59.37a132.72,132.72,0,0,0-56.23-35.32s-19.59-5.92-39.18-5.92A132,132,0,1,0,260.08,230.78c1.62-2.63,11.67-19.09,13.66-31.12C274.39,195.74,274.17,192.41,272.7,189.41Z" transform="translate(-8.59 -3.13)"/><path class="cls-3" d="M155.59,18.13c19.59,0,39.18,5.92,39.18,5.92A132.72,132.72,0,0,1,251,59.37a46.79,46.79,0,0,1,6.6,10.51c1.74,3.81,3.36,7.41,3.5,12.14,0,2.07.31,11-5.25,14.14a8.55,8.55,0,0,1-4.24,1,19.57,19.57,0,0,1-4.79-.75,24.07,24.07,0,0,1-11.18-6.74c-9.56-9.83-25.6-20.31-34-23a74.3,74.3,0,0,0-23-3.66,64.66,64.66,0,0,0-13,1.23c-6,1.22-23.2,5.58-36.79,21-6.33,7.2-9.29,13.92-11.72,19.41a94.59,94.59,0,0,0-7.68,43.66,72.52,72.52,0,0,0,3.23,20.08,70,70,0,0,0,10.51,20.35,70.82,70.82,0,0,0,20,18.19,14.68,14.68,0,0,1,3.61-3.84c1.44-1.06,3-2.26,4.91-2.26a3.64,3.64,0,0,1,.57,0c1.37.18,2.38,1,4.33,2.67a36.43,36.43,0,0,1,4.32,4.32,32,32,0,0,1,6.85-1.06l1.4,0c8.1,0,14.34,3.18,20.16,6.23a71.57,71.57,0,0,1,16.71,12.13,52.9,52.9,0,0,0,29.2-13.48c7.56-6.92,13-15.9,20.29-23.06a19.66,19.66,0,0,1,5.35-4,9.65,9.65,0,0,1,3.93-.88,7.86,7.86,0,0,1,2.58.42c3.18,1.11,4.62,4,5.23,5.28,1.47,3,1.69,6.33,1,10.25-2,12-12,28.49-13.66,31.12A132,132,0,1,1,155.59,18.13m0-5A137,137,0,0,0,58.71,247,137.09,137.09,0,0,0,217,272.64,138.31,138.31,0,0,0,264,233.84a4.15,4.15,0,0,0,.3-.43c2.85-4.62,12.31-20.65,14.34-32.94.85-5.14.37-9.48-1.48-13.26-.74-1.49-3-6-8.09-7.8a12.69,12.69,0,0,0-4.21-.7,14.59,14.59,0,0,0-6,1.34,24.37,24.37,0,0,0-6.75,5,125.36,125.36,0,0,0-9.88,11.35A100.42,100.42,0,0,1,232,208a48.25,48.25,0,0,1-24.16,11.87,76.71,76.71,0,0,0-16.06-11.26c-5.78-3-13-6.8-22.48-6.8-.53,0-1.08,0-1.62,0a38.31,38.31,0,0,0-4.89.55c-.9-.92-1.85-1.8-2.83-2.63-2.17-1.84-4-3.43-6.9-3.81a10.16,10.16,0,0,0-1.23-.08c-3.49,0-6.08,1.91-7.8,3.18l-.07.05a19.84,19.84,0,0,0-1.58,1.3,65.37,65.37,0,0,1-24.83-33.49,68.34,68.34,0,0,1-3-18.79,89.07,89.07,0,0,1,7.26-41.41c2.4-5.42,5.1-11.52,10.91-18.13,11.64-13.24,26.32-17.85,34-19.42a60.94,60.94,0,0,1,12-1.13,68.91,68.91,0,0,1,21.45,3.41c7.44,2.43,22.67,12.26,31.93,21.78l0,0a28.57,28.57,0,0,0,13.5,8,23.61,23.61,0,0,0,6,.91,13.46,13.46,0,0,0,6.68-1.66c3.74-2.08,8.13-7,7.8-18.64-.16-5.8-2.17-10.2-3.94-14.08a52.51,52.51,0,0,0-7.3-11.63l-.23-.25a137.75,137.75,0,0,0-58.35-36.65h-.05c-.83-.25-20.58-6.13-40.63-6.13Z" transform="translate(-8.59 -3.13)"/><path class="cls-1" d="M272.7,189.41c-.61-1.24-2.05-4.17-5.23-5.28a8.91,8.91,0,0,0-6.51.46,19.66,19.66,0,0,0-5.35,4c-7.32,7.16-12.73,16.14-20.29,23.06a52.9,52.9,0,0,1-29.2,13.48A71.57,71.57,0,0,0,189.41,213c-6.15-3.23-12.77-6.6-21.56-6.2a32,32,0,0,0-6.85,1.06,36.43,36.43,0,0,0-4.32-4.32c-2-1.66-3-2.49-4.33-2.67-2.12-.28-3.89,1-5.48,2.22a14.68,14.68,0,0,0-3.61,3.84,70.82,70.82,0,0,1-20-18.19,70,70,0,0,1-10.51-20.35,72.52,72.52,0,0,1-3.23-20.08,94.59,94.59,0,0,1,7.68-43.66c2.43-5.49,5.39-12.21,11.72-19.41,13.59-15.44,30.81-19.8,36.79-21a72.37,72.37,0,0,1,36,2.43c8.36,2.73,24.4,13.21,34,23a24.07,24.07,0,0,0,11.18,6.74c2.25.57,5.87,1.49,9-.27,5.56-3.1,5.3-12.07,5.25-14.14-.14-4.73-1.76-8.33-3.5-12.14A46.79,46.79,0,0,0,251,59.37a132.72,132.72,0,0,0-56.23-35.32s-19.59-5.92-39.18-5.92A132,132,0,1,0,260.08,230.78c1.62-2.63,11.67-19.09,13.66-31.12C274.39,195.74,274.17,192.41,272.7,189.41Z" transform="translate(-8.59 -3.13)"/><path d="M245.27,223.68a6.64,6.64,0,0,0-1.64,4.32c0,.2-.32.25-.35.05a7.78,7.78,0,0,1,2.47-6.66,3.92,3.92,0,0,0-2.14-.94,10.54,10.54,0,0,0-1.34.75,5.66,5.66,0,0,0-1.19,1.6,9.58,9.58,0,0,0-1.13,4.12c0,.15-.24.19-.26,0a9.23,9.23,0,0,1,.58-5,7.18,7.18,0,0,1,.62-1.12c-4,1.65-4.19,7.63-4.21,11.31a1.89,1.89,0,0,1-.17.54,1.62,1.62,0,0,1-.22.37c-1.78,1.08-4.08,2.4-6.82,3.82-2.06,1.07-6.62,3-12.37,5.57-6.7,3-13.84,5.68-21.22,6.29-7.61.62-15-1-22.36-2.73a196.9,196.9,0,0,1-24.34-7.32c-7.8-3-15.39-4.84-23-.26-.2.12-.44-.18-.25-.33a17.25,17.25,0,0,1,13.34-3.49c-.77-2.8-.4-6.56-.12-9.32a32.62,32.62,0,0,1,1.71-7.58h0s0,0,0,0a.49.49,0,0,1,0,.11,75,75,0,0,1-24.52-26.41c-11.67-21.66-10.23-47.27-9.71-56.6.77-13.74,3.55-25.28-1.32-41.32-3-7-5-14.3-11.45-19.19-.08-.06,0-.19.08-.14a20.85,20.85,0,0,1,6.66,6A72.88,72.88,0,0,1,127,52.81c21-12.15,50.69-10.39,73.85-1.08a99.44,99.44,0,0,1,36.92,26.15c2.1,2.14,5.15,2.55,7,1.34,2.37-1.54,3.07-5.88.27-8.89a124,124,0,0,0-36.93-29.11c-19.36-10-33.63-13.91-52-13.48-43.32,1-71.48,34.46-76.55,40.7A72,72,0,0,0,52.9,83.27C27.18,106.13,27.47,141,27.56,151.73a110.59,110.59,0,0,0,13,50.46,39.21,39.21,0,0,1,1.8-10.33C45,182.75,47.1,173,43,164a.14.14,0,0,1,.25-.14c4.56,7.32,4,15.8,2.14,23.9-1.12,4.78-2.74,9.35-3,14.3a14,14,0,0,0,.34,3.95,132.92,132.92,0,0,0,19.38,26,136.07,136.07,0,0,0,35.59,26.55c3,.91,6.37,1.86,8.68-1a6,6,0,0,0-2-8.81c-3.22-1.83-6.93-.6-10.09.68-.12.05-.23-.14-.13-.22,3.24-2.53,7.55-3.76,11.32-1.59a8.33,8.33,0,0,1,1.17.85c-.41-2.77-1.24-5-4.51-6.06A9.89,9.89,0,0,0,93.15,244c-.18.12-.35-.14-.22-.28,2.71-3,7.29-3.5,10.74-2.07-1.49-2.82-3.32-4.83-7-4.74a9.05,9.05,0,0,0-7.33,3.64.63.63,0,0,1-.52.65.39.39,0,0,1-.56-.16c-1.22-.65-2.39-1.39-3.64-2-.46-.23-1.23-.5-1.44-1h0a.39.39,0,0,1-.06-.2c-.5-4.5-1.54-9.1-2.44-13.54a73,73,0,0,0-3.6-11.62c-1.54-4-3.25-8-5-11.91a60.13,60.13,0,0,0-2.56-5.52,24.27,24.27,0,0,1-2.15-4.14.85.85,0,0,1,0-.59c-.18-.6.59-1.22,1.06-.68l.06.07a.65.65,0,0,1,.2,0c5.68-6.45,9.56-14.57,13.39-22.18,7.27-14.47,14.38-31,12-47.63C92.16,107,83.8,93.4,70.89,88.9a.25.25,0,0,1,.13-.49c7.46,2,13.39,7.22,17.63,13.5,9,13.34,8.88,29.47,4.31,44.44a136.11,136.11,0,0,1-10.43,24.22c-3.83,7.17-7.39,14.62-12.88,20.69.66,1.45,1.63,2.75,2.33,4.18.84,1.76,1.53,3.6,2.26,5.4,1.63,4.06,3,8.2,4.45,12.33a71.06,71.06,0,0,1,3.43,12.63c.62,3.88,1.57,7.72,2,11.63.45.16.93.44,1.33.62a27.09,27.09,0,0,1,3,1.63c1-3,5.49-4.21,8.26-4.22,3.82,0,8.09,2.64,8.33,6.76a.29.29,0,0,1,0,.09,6.64,6.64,0,0,1,3,7.72,7.19,7.19,0,0,1,.8,6.12,6.87,6.87,0,0,1-6.72,4.66c35.88,17.25,77.46,19.4,105.29,4.12,8.35-4.59,23.5-15.17,37.46-31.27l1.15-1.35a13.11,13.11,0,0,0,1.75-5.42,7.61,7.61,0,0,0-1-4.42A6.7,6.7,0,0,0,245.27,223.68Z" transform="translate(-8.59 -3.13)"/><path d="M265,198.25c-.14.08-.3.15-.43.23a7.56,7.56,0,0,0-3.63,4.23.15.15,0,0,1-.28-.08,7.4,7.4,0,0,1,2.73-4.41c.34-.28.71-.58,1.11-.87a5.45,5.45,0,0,0-1.28-1.46,10.07,10.07,0,0,0-1.87,1,11.92,11.92,0,0,0-3.39,3.68.07.07,0,0,1-.12,0,11.7,11.7,0,0,1,4-5.21,5.54,5.54,0,0,0-3.06.28,11.24,11.24,0,0,0-5.86,4.95,63.83,63.83,0,0,1-13,15.16,65.5,65.5,0,0,1-30.61,14.27,33.82,33.82,0,0,1,6,5.66c1.18,1.56,2.09,3.69,1.29,5.41,5.11-2.26,8.89-3.88,10.82-4.92,3-1.65,5.52-3.24,7.38-4.5a11.71,11.71,0,0,1-.05-2.33c.34-4.55,3.31-9,6.62-9.95a6.47,6.47,0,0,1,2.45-.2,5.68,5.68,0,0,1,2.61,1.12,6.27,6.27,0,0,1,2.22,4.91,12.62,12.62,0,0,1-1.16,5.34,151.68,151.68,0,0,0,17-25.66,7.78,7.78,0,0,0,.5-6.53Z" transform="translate(-8.59 -3.13)"/><path d="M210.84,235.08c-5-1.86-9.17-6.25-12.76-9.87a64.74,64.74,0,0,0-14.29-10.71,36.92,36.92,0,0,0-17.39-2.87,32.37,32.37,0,0,0-5.46,1,55.32,55.32,0,0,1,3.42,5.82c1.39,2.63,3.11,5.47,2.1,8.53s-4.16,5-6.75,6.45c-1.72,1-4.34,2.5-6.36,1.6-3.83-1.73-4-8.49-4.19-12-.25-5.46,0-12.31,3.12-17.23H152c-4.1,3-7.77,6.17-9.67,11.3a26.87,26.87,0,0,0-1.67,9.13c0,1.57.21,3.13.34,4.7a17.52,17.52,0,0,0,.29,3.62,1,1,0,0,1,0,.38,40.32,40.32,0,0,1,4.9,1.3c7.62,2.5,15.06,5.17,22.86,7.11s15.85,4,24,3.91a52.15,52.15,0,0,0,17.33-3.73C208.68,241.06,209.92,237.75,210.84,235.08Zm-9.93.17c-.87,2.7-4.88,3.83-7.3,4.36a27.29,27.29,0,0,1-16.08-1.69c-.13,0,0-.16,0-.16h.07a13.36,13.36,0,0,0,4.52,1.09,14.21,14.21,0,0,0,1.6,0,43.23,43.23,0,0,0,4.38-.42,12.59,12.59,0,0,0,4.32-1.19,5.27,5.27,0,0,0,2.88-3.55,4.27,4.27,0,0,1,.94-1.92C198.45,229.65,201.73,232.71,200.91,235.25Z" transform="translate(-8.59 -3.13)"/></svg>